# Blender v3.0.0 OBJ File: 'interaction cell 3wall.blend'
# www.blender.org
mtllib interaction cell 3wall.mtl
o Cube
v 2.867785 -2.000926 -2.867785
v 3.880487 -2.761899 -3.880487
v 2.867785 -2.000926 2.867785
v 3.880487 -2.761899 3.880487
v -2.867785 -2.000926 -2.867785
v -3.880487 -2.761899 -3.880487
v -2.867785 -2.000926 2.867785
v -3.880487 -2.761899 3.880487
v 3.880487 -2.000926 3.880487
v -3.880487 -2.000926 3.880487
v 3.880487 -2.000926 -3.880487
v -3.880487 -2.000926 -3.880487
v 3.310615 -2.000926 3.310615
v -3.310615 -2.000926 3.310615
v 3.310615 -2.000926 -3.310615
v -3.310615 -2.000926 -3.310615
v 0.000000 -2.000926 3.310615
v 3.310615 -2.000926 -0.000000
v -3.310615 -2.000926 -0.000000
v 0.000000 -2.000926 -3.310615
v 0.000000 -2.000926 2.867785
v 2.867785 -2.000926 -0.000000
v -2.867785 -2.000926 -0.000000
v 0.000000 -2.000926 -2.867785
v -3.089200 -2.000926 -0.000000
v 3.089200 -2.000926 -0.000000
v 0.000000 -2.000926 3.089200
v 0.000000 -2.000926 -0.000000
v -1.110707 -2.000926 3.310615
v 3.310615 -2.000926 1.110707
v -3.310615 -2.000926 -1.110707
v 1.110707 -2.000926 -3.310615
v -0.889293 -2.000926 2.867785
v 2.867785 -2.000926 0.889293
v -2.867785 -2.000926 -0.889293
v 0.889293 -2.000926 -2.867785
v 1.110707 -2.000926 3.310615
v 3.310615 -2.000926 -1.110707
v -3.310615 -2.000926 1.110707
v -1.110707 -2.000926 -3.310615
v 0.889293 -2.000926 2.867785
v 2.867785 -2.000926 -0.889293
v -2.867785 -2.000926 0.889293
v -0.889293 -2.000926 -2.867785
v -1.000000 -2.000926 -3.089200
v 1.000000 -2.000926 -3.089200
v -3.199907 -2.000926 -0.000000
v -2.978493 -2.000926 -0.000000
v -3.089200 -2.000926 1.000000
v -3.089200 -2.000926 -1.000000
v 3.199907 -2.000926 -0.000000
v 2.978493 -2.000926 -0.000000
v 3.089200 -2.000926 -1.000000
v 3.089200 -2.000926 1.000000
v 0.000000 -2.000926 3.199907
v 0.000000 -2.000926 2.978493
v 1.000000 -2.000926 3.089200
v -1.000000 -2.000926 3.089200
v -0.944646 -2.000926 2.978493
v 0.944646 -2.000926 2.978493
v 1.055354 -2.000926 3.199907
v 2.978493 -2.000926 0.944646
v 2.978493 -2.000926 -0.944646
v 3.199907 -2.000926 -1.055354
v -2.978493 -2.000926 -0.944646
v -2.978493 -2.000926 0.944646
v -3.199907 -2.000926 1.055354
v 0.944646 -2.000926 -2.978493
v -0.944646 -2.000926 -2.978493
v -1.055354 -2.000926 -3.199907
v 1.055354 -2.000926 -3.199907
v -3.199907 -2.000926 -1.055354
v 3.199907 -2.000926 1.055354
v -1.055354 -2.000926 3.199907
v -1.110707 2.618584 3.310615
v -3.310615 2.618584 3.310615
v 3.310615 2.618584 1.110707
v 3.310615 2.618584 3.310615
v -3.310615 2.618584 -1.110707
v -3.310615 2.618584 -3.310615
v 1.110707 2.618584 -3.310615
v 3.310615 2.618584 -3.310615
v -0.889293 2.618584 2.867785
v -2.867785 2.618584 2.867785
v 2.867785 2.618584 0.889293
v 2.867785 2.618584 2.867785
v -2.867785 2.618584 -0.889293
v -2.867785 2.618584 -2.867785
v 0.889293 2.618584 -2.867785
v 2.867785 2.618584 -2.867785
v 2.978493 2.618584 2.978493
v -3.199907 2.618584 3.199907
v 2.978493 2.618584 -2.978493
v -3.199907 2.618584 -3.199907
v 3.199907 2.618584 3.199907
v 3.089200 2.618584 3.089200
v -2.978493 2.618584 2.978493
v -3.089200 2.618584 3.089200
v 3.199907 2.618584 -3.199907
v 3.089200 2.618584 -3.089200
v -2.978493 2.618584 -2.978493
v -3.089200 2.618584 -3.089200
v -1.000000 2.618584 -3.089200
v -3.089200 2.618584 1.000000
v 3.089200 2.618584 -1.000000
v 1.000000 2.618584 3.089200
v 1.110707 2.618584 3.310615
v 3.310615 2.618584 -1.110707
v -3.310615 2.618584 1.110707
v -1.110707 2.618584 -3.310615
v 0.889293 2.618584 2.867785
v 2.867785 2.618584 -0.889293
v -2.867785 2.618584 0.889293
v -0.889293 2.618584 -2.867785
v 1.000000 2.618584 -3.089200
v -3.089200 2.618584 -1.000000
v 3.089200 2.618584 1.000000
v -1.000000 2.618584 3.089200
v -0.944646 2.618584 2.978493
v 0.944646 2.618584 2.978493
v 1.055354 2.618584 3.199907
v 2.978493 2.618584 0.944646
v 2.978493 2.618584 -0.944646
v 3.199907 2.618584 -1.055354
v -2.978493 2.618584 -0.944646
v -2.978493 2.618584 0.944646
v -3.199907 2.618584 1.055354
v 0.944646 2.618584 -2.978493
v -0.944646 2.618584 -2.978493
v -1.055354 2.618584 -3.199907
v 1.055354 2.618584 -3.199907
v -3.199907 2.618584 -1.055354
v 3.199907 2.618584 1.055354
v -1.055354 2.618584 3.199907
v -3.880487 -2.761899 0.000000
v 3.880487 -2.000926 0.000000
v -3.880487 -2.000926 0.000000
v 3.880487 -2.761899 0.000000
v 0.000000 -2.761899 -3.880487
v 0.000000 -2.000926 3.880487
v 0.000000 -2.761899 3.880487
v 0.000000 -2.000926 -3.880487
v 0.000000 -2.761899 0.000000
vt 0.796189 0.717378
vt 0.842378 0.671189
vt 0.842378 0.717378
vt 0.375000 0.875000
vt 0.625000 0.875000
vt 0.625000 1.000000
vt 0.375000 1.000000
vt 0.375000 0.125000
vt 0.625000 0.125000
vt 0.625000 0.250000
vt 0.375000 0.250000
vt 0.250000 0.625000
vt 0.375000 0.625000
vt 0.375000 0.750000
vt 0.250000 0.750000
vt 0.625000 0.625000
vt 0.625000 0.750000
vt 0.375000 0.375000
vt 0.625000 0.375000
vt 0.625000 0.500000
vt 0.375000 0.500000
vt 0.643357 0.731643
vt 0.696679 0.731643
vt 0.750000 0.731643
vt 0.803321 0.731643
vt 0.856643 0.731643
vt 0.875000 0.750000
vt 0.750000 0.750000
vt 0.643357 0.518357
vt 0.643357 0.571679
vt 0.643357 0.625000
vt 0.643357 0.678321
vt 0.856643 0.678321
vt 0.856643 0.625000
vt 0.856643 0.571679
vt 0.856643 0.518357
vt 0.875000 0.500000
vt 0.875000 0.625000
vt 0.803321 0.518357
vt 0.750000 0.518357
vt 0.696678 0.518357
vt 0.750000 0.500000
vt 0.700245 0.724511
vt 0.698462 0.728077
vt 0.801538 0.728077
vt 0.799755 0.724511
vt 0.650489 0.674755
vt 0.646923 0.676538
vt 0.646923 0.573462
vt 0.650489 0.575245
vt 0.702028 0.720945
vt 0.797972 0.720945
vt 0.654055 0.672972
vt 0.654055 0.577028
vt 0.853077 0.676538
vt 0.853077 0.625000
vt 0.845944 0.672972
vt 0.845944 0.625000
vt 0.849511 0.625000
vt 0.849511 0.674755
vt 0.703811 0.717378
vt 0.646923 0.573462
vt 0.646923 0.625000
vt 0.654055 0.577028
vt 0.654055 0.625000
vt 0.650489 0.625000
vt 0.650489 0.575245
vt 0.849511 0.575245
vt 0.853077 0.573462
vt 0.853077 0.676538
vt 0.849511 0.674755
vt 0.750000 0.728077
vt 0.750000 0.720945
vt 0.750000 0.724511
vt 0.696678 0.518357
vt 0.643357 0.518357
vt 0.657622 0.671189
vt 0.657622 0.717378
vt 0.703811 0.532622
vt 0.750000 0.532622
vt 0.750000 0.625000
vt 0.657622 0.625000
vt 0.657622 0.578811
vt 0.796189 0.532622
vt 0.842378 0.532622
vt 0.842378 0.578811
vt 0.842378 0.625000
vt 0.657622 0.532622
vt 0.750000 0.717378
vt 0.845944 0.577028
vt 0.845944 0.672972
vt 0.703811 0.717378
vt 0.796189 0.717378
vt 0.856643 0.571679
vt 0.856643 0.518357
vt 0.702028 0.720945
vt 0.797972 0.720945
vt 0.654055 0.672972
vt 0.650489 0.674755
vt 0.643357 0.678321
vt 0.643357 0.731643
vt 0.657622 0.671189
vt 0.657622 0.578811
vt 0.803321 0.731643
vt 0.856643 0.731643
vt 0.845944 0.577028
vt 0.849511 0.575245
vt 0.796189 0.532622
vt 0.842378 0.532622
vt 0.842378 0.578811
vt 0.842378 0.671189
vt 0.842378 0.717378
vt 0.698462 0.521923
vt 0.700245 0.525489
vt 0.702028 0.529055
vt 0.703811 0.532622
vt 0.702028 0.529055
vt 0.700245 0.525489
vt 0.698462 0.521923
vt 0.700245 0.724511
vt 0.799755 0.724511
vt 0.657622 0.532622
vt 0.698462 0.728077
vt 0.801538 0.728077
vt 0.853077 0.573462
vt 0.657622 0.717378
vt 0.646923 0.676538
vt 0.853077 0.728077
vt 0.646923 0.728077
vt 0.853077 0.521923
vt 0.646923 0.521923
vt 0.654055 0.529055
vt 0.650489 0.525489
vt 0.845944 0.529055
vt 0.849511 0.525489
vt 0.654055 0.720945
vt 0.650489 0.724511
vt 0.845944 0.720945
vt 0.849511 0.724511
vt 0.696679 0.731643
vt 0.643357 0.571679
vt 0.856643 0.678321
vt 0.797972 0.529055
vt 0.799755 0.525489
vt 0.801538 0.521923
vt 0.803321 0.518357
vt 0.799755 0.525489
vt 0.801538 0.521923
vt 0.797972 0.529055
vt 0.250000 0.500000
vt 0.375000 0.000000
vt 0.625000 0.000000
vt 0.125000 0.500000
vt 0.125000 0.625000
vt 0.125000 0.750000
vn 0.0000 1.0000 0.0000
vn 0.0000 0.0000 1.0000
vn -1.0000 0.0000 0.0000
vn 0.0000 -1.0000 0.0000
vn 1.0000 0.0000 0.0000
vn 0.0000 0.0000 -1.0000
vn -0.8944 0.0000 -0.4472
vn 0.8944 -0.0000 -0.4472
usemtl Material
s off
f 33/1/1 43/2/1 7/3/1
f 141/4/2 140/5/2 10/6/2 8/7/2
f 135/8/3 137/9/3 12/10/3 6/11/3
f 143/12/4 138/13/4 4/14/4 141/15/4
f 138/13/5 136/16/5 9/17/5 4/14/5
f 139/18/6 142/19/6 11/20/6 2/21/6
f 13/22/1 37/23/1 17/24/1 29/25/1 14/26/1 10/27/1 140/28/1 9/17/1
f 15/29/1 38/30/1 18/31/1 30/32/1 13/22/1 9/17/1 136/16/1 11/20/1
f 14/26/1 39/33/1 19/34/1 31/35/1 16/36/1 12/37/1 137/38/1 10/27/1
f 16/36/1 40/39/1 20/40/1 32/41/1 15/29/1 11/20/1 142/42/1 12/37/1
f 57/43/4 61/44/4 74/45/4 58/46/4
f 117/47/1 133/48/1 124/49/1 105/50/1
f 60/51/4 57/43/4 58/46/4 59/52/4
f 122/53/1 117/47/1 105/50/1 123/54/1
f 67/55/1 47/56/1 19/34/1 39/33/1
f 66/57/1 48/58/1 25/59/1 49/60/1
f 41/61/4 60/51/4 59/52/4 33/1/4
f 64/62/1 51/63/1 18/31/1 38/30/1
f 63/64/1 52/65/1 26/66/1 53/67/1
f 116/68/1 132/69/1 127/70/1 104/71/1
f 61/44/1 55/72/1 17/24/1 37/23/1
f 60/51/1 56/73/1 27/74/1 57/43/1
f 15/29/6 32/41/6 81/75/6 82/76/6
f 34/77/1 41/61/1 3/78/1
f 36/79/1 24/80/1 28/81/1 22/82/1 42/83/1
f 44/84/1 5/85/1 35/86/1
f 24/80/1 44/84/1 35/86/1 23/87/1 28/81/1
f 1/88/1 36/79/1 42/83/1
f 22/82/1 28/81/1 21/89/1 41/61/1 34/77/1
f 56/73/1 59/52/1 58/46/1 27/74/1
f 21/89/1 33/1/1 59/52/1 56/73/1
f 125/90/1 116/68/1 104/71/1 126/91/1
f 111/92/6 41/61/6 33/1/6 83/93/6
f 16/36/3 31/35/3 79/94/3 80/95/3
f 41/61/1 21/89/1 56/73/1 60/51/1
f 120/96/1 111/92/1 83/93/1 119/97/1
f 57/43/1 27/74/1 55/72/1 61/44/1
f 52/65/1 62/98/1 54/99/1 26/66/1
f 22/82/1 34/77/1 62/98/1 52/65/1
f 13/22/5 30/32/5 77/100/5 78/101/5
f 85/102/1 122/53/1 123/54/1 112/103/1
f 42/83/1 22/82/1 52/65/1 63/64/1
f 34/77/3 85/102/3 112/103/3 42/83/3
f 14/26/2 29/25/2 75/104/2 76/105/2
f 53/67/1 26/66/1 51/63/1 64/62/1
f 48/58/1 65/106/1 50/107/1 25/59/1
f 23/87/1 35/86/1 65/106/1 48/58/1
f 5/85/2 44/84/2 114/108/2 88/109/2
f 62/98/4 34/77/4 42/83/4 63/64/4
f 54/99/4 62/98/4 63/64/4 53/67/4
f 43/2/1 23/87/1 48/58/1 66/57/1
f 87/110/1 125/90/1 126/91/1 113/111/1
f 7/3/5 43/2/5 113/111/5 84/112/5
f 49/60/1 25/59/1 47/56/1 67/55/1
f 32/41/7 71/113/7 46/114/7 68/115/7 36/79/7 89/116/7 128/117/7 115/118/7 131/119/7 81/75/7
f 35/86/5 87/110/5 113/111/5 43/2/5
f 106/120/1 120/96/1 119/97/1 118/121/1
f 1/88/3 42/83/3 112/103/3 90/122/3
f 36/79/2 1/88/2 90/122/2 89/116/2
f 121/123/1 106/120/1 118/121/1 134/124/1
f 47/56/1 72/125/1 31/35/1 19/34/1
f 25/59/1 50/107/1 72/125/1 47/56/1
f 3/78/6 41/61/6 111/92/6 86/126/6
f 51/63/1 73/127/1 30/32/1 18/31/1
f 26/66/1 54/99/1 73/127/1 51/63/1
f 55/72/1 74/45/1 29/25/1 17/24/1
f 27/74/1 58/46/1 74/45/1 55/72/1
f 73/127/4 54/99/4 53/67/4 64/62/4
f 28/81/1 23/87/1 43/2/1 33/1/1 21/89/1
f 134/124/1 92/128/1 76/105/1 75/104/1
f 133/48/1 95/129/1 78/101/1 77/100/1
f 132/69/1 94/130/1 80/95/1 79/94/1
f 131/119/1 99/131/1 82/76/1 81/75/1
f 128/117/1 93/132/1 100/133/1 115/118/1
f 125/90/1 101/134/1 102/135/1 116/68/1
f 122/53/1 91/136/1 96/137/1 117/47/1
f 119/97/1 97/138/1 98/139/1 118/121/1
f 83/93/1 84/112/1 97/138/1 119/97/1
f 91/136/1 120/96/1 106/120/1 96/137/1
f 86/126/1 111/92/1 120/96/1 91/136/1
f 95/129/1 121/123/1 107/140/1 78/101/1
f 96/137/1 106/120/1 121/123/1 95/129/1
f 85/102/1 86/126/1 91/136/1 122/53/1
f 93/132/1 123/54/1 105/50/1 100/133/1
f 90/122/1 112/103/1 123/54/1 93/132/1
f 99/131/1 124/49/1 108/141/1 82/76/1
f 100/133/1 105/50/1 124/49/1 99/131/1
f 87/110/1 88/109/1 101/134/1 125/90/1
f 97/138/1 126/91/1 104/71/1 98/139/1
f 84/112/1 113/111/1 126/91/1 97/138/1
f 92/128/1 127/70/1 109/142/1 76/105/1
f 98/139/1 104/71/1 127/70/1 92/128/1
f 89/116/1 90/122/1 93/132/1 128/117/1
f 101/134/1 129/143/1 103/144/1 102/135/1
f 88/109/1 114/108/1 129/143/1 101/134/1
f 94/130/1 130/145/1 110/146/1 80/95/1
f 102/135/1 103/144/1 130/145/1 94/130/1
f 115/118/1 100/133/1 99/131/1 131/119/1
f 116/68/1 102/135/1 94/130/1 132/69/1
f 117/47/1 96/137/1 95/129/1 133/48/1
f 118/121/1 98/139/1 92/128/1 134/124/1
f 107/140/1 121/123/1 134/124/1 75/104/1
f 37/23/2 13/22/2 78/101/2 107/140/2
f 45/147/8 70/148/8 40/39/8 110/146/8 130/145/8 103/144/8 129/143/8 114/108/8 44/84/8 69/149/8
f 38/30/5 15/29/5 82/76/5 108/141/5
f 65/106/4 35/86/4 43/2/4 66/57/4
f 33/1/6 7/3/6 84/112/6 83/93/6
f 39/33/3 14/26/3 76/105/3 109/142/3
f 50/107/4 65/106/4 66/57/4 49/60/4
f 72/125/4 50/107/4 49/60/4 67/55/4
f 34/77/3 3/78/3 86/126/3 85/102/3
f 30/32/4 73/127/4 64/62/4 38/30/4
f 40/39/6 16/36/6 80/95/6 110/146/6
f 31/35/4 72/125/4 67/55/4 39/33/4
f 35/86/5 5/85/5 88/109/5 87/110/5
f 2/21/5 11/20/5 136/16/5 138/13/5
f 139/150/4 2/21/4 138/13/4 143/12/4
f 8/151/3 10/152/3 137/9/3 135/8/3
f 6/153/4 139/150/4 143/12/4 135/154/4
f 6/11/6 12/10/6 142/19/6 139/18/6
f 135/154/4 143/12/4 141/15/4 8/155/4
f 4/14/2 9/17/2 140/5/2 141/4/2
f 20/40/1 40/39/1 70/148/1 45/147/1 69/149/1 44/84/1 24/80/1 36/79/1 68/115/1 46/114/1 71/113/1 32/41/1
f 133/48/1 77/100/1 108/141/1 124/49/1
f 77/100/5 30/32/5 38/30/5 108/141/5
f 61/44/4 37/23/4 29/25/4 74/45/4
f 37/23/2 107/140/2 75/104/2 29/25/2
f 132/69/1 79/94/1 109/142/1 127/70/1
f 79/94/3 31/35/3 39/33/3 109/142/3
